<mxfile host="app.diagrams.net" modified="2024-05-19T14:08:54.311Z" agent="Mozilla/5.0 (X11; Linux x86_64; rv:121.0) Gecko/20100101 Firefox/121.0" etag="xyulU6vrio1AGdi9I9DJ" version="24.4.4" type="device">
  <diagram id="C5RBs43oDa-KdzZeNtuy" name="Page-1">
    <mxGraphModel dx="3375" dy="2589" grid="1" gridSize="10" guides="1" tooltips="1" connect="1" arrows="1" fold="1" page="1" pageScale="1" pageWidth="827" pageHeight="1169" math="0" shadow="0">
      <root>
        <mxCell id="WIyWlLk6GJQsqaUBKTNV-0" />
        <mxCell id="WIyWlLk6GJQsqaUBKTNV-1" parent="WIyWlLk6GJQsqaUBKTNV-0" />
        <mxCell id="Q5AAanz-ZWtQsxfjovlU-100" value="" style="shape=folder;fontStyle=1;spacingTop=10;tabWidth=70;tabHeight=30;tabPosition=left;html=1;whiteSpace=wrap;" vertex="1" parent="WIyWlLk6GJQsqaUBKTNV-1">
          <mxGeometry x="-510" y="-380" width="1160" height="1000" as="geometry" />
        </mxCell>
        <mxCell id="Q5AAanz-ZWtQsxfjovlU-80" value="" style="shape=folder;fontStyle=1;spacingTop=10;tabWidth=70;tabHeight=30;tabPosition=left;html=1;whiteSpace=wrap;" vertex="1" parent="WIyWlLk6GJQsqaUBKTNV-1">
          <mxGeometry x="-460" y="-340" width="980" height="390" as="geometry" />
        </mxCell>
        <mxCell id="Q5AAanz-ZWtQsxfjovlU-51" value="" style="shape=folder;fontStyle=1;spacingTop=10;tabWidth=70;tabHeight=30;tabPosition=left;html=1;whiteSpace=wrap;" vertex="1" parent="WIyWlLk6GJQsqaUBKTNV-1">
          <mxGeometry x="-420" y="-290" width="610" height="330" as="geometry" />
        </mxCell>
        <mxCell id="Q5AAanz-ZWtQsxfjovlU-56" value="" style="group" vertex="1" connectable="0" parent="WIyWlLk6GJQsqaUBKTNV-1">
          <mxGeometry x="-240" y="120" width="530" height="420" as="geometry" />
        </mxCell>
        <mxCell id="Q5AAanz-ZWtQsxfjovlU-57" value="" style="shape=folder;fontStyle=1;spacingTop=10;tabWidth=70;tabHeight=30;tabPosition=left;html=1;whiteSpace=wrap;" vertex="1" parent="Q5AAanz-ZWtQsxfjovlU-56">
          <mxGeometry width="530" height="420" as="geometry" />
        </mxCell>
        <mxCell id="Q5AAanz-ZWtQsxfjovlU-58" value="entity" style="text;html=1;align=center;verticalAlign=middle;whiteSpace=wrap;rounded=0;" vertex="1" parent="Q5AAanz-ZWtQsxfjovlU-56">
          <mxGeometry width="72.27272727272728" height="38.18181818181818" as="geometry" />
        </mxCell>
        <mxCell id="Q5AAanz-ZWtQsxfjovlU-10" value="Entity interfaces" style="text;html=1;align=center;verticalAlign=middle;whiteSpace=wrap;rounded=0;" vertex="1" parent="Q5AAanz-ZWtQsxfjovlU-56">
          <mxGeometry x="290" y="60" width="60" height="30" as="geometry" />
        </mxCell>
        <mxCell id="Q5AAanz-ZWtQsxfjovlU-9" value="Corresponding abstract classes" style="text;html=1;align=center;verticalAlign=middle;whiteSpace=wrap;rounded=0;" vertex="1" parent="Q5AAanz-ZWtQsxfjovlU-56">
          <mxGeometry x="20" y="50" width="60" height="30" as="geometry" />
        </mxCell>
        <mxCell id="Q5AAanz-ZWtQsxfjovlU-33" style="edgeStyle=orthogonalEdgeStyle;rounded=0;orthogonalLoop=1;jettySize=auto;html=1;exitX=1;exitY=0.5;exitDx=0;exitDy=0;entryX=0;entryY=0.5;entryDx=0;entryDy=0;endArrow=block;endFill=1;dashed=1;" edge="1" parent="WIyWlLk6GJQsqaUBKTNV-1" source="Q5AAanz-ZWtQsxfjovlU-0" target="Q5AAanz-ZWtQsxfjovlU-11">
          <mxGeometry relative="1" as="geometry" />
        </mxCell>
        <mxCell id="Q5AAanz-ZWtQsxfjovlU-0" value="EntityModel" style="rounded=0;whiteSpace=wrap;html=1;" vertex="1" parent="WIyWlLk6GJQsqaUBKTNV-1">
          <mxGeometry x="-220" y="220" width="140" height="40" as="geometry" />
        </mxCell>
        <mxCell id="Q5AAanz-ZWtQsxfjovlU-6" style="edgeStyle=orthogonalEdgeStyle;rounded=0;orthogonalLoop=1;jettySize=auto;html=1;exitX=0.5;exitY=0;exitDx=0;exitDy=0;entryX=0.5;entryY=1;entryDx=0;entryDy=0;endArrow=block;endFill=1;" edge="1" parent="WIyWlLk6GJQsqaUBKTNV-1" source="Q5AAanz-ZWtQsxfjovlU-2" target="Q5AAanz-ZWtQsxfjovlU-0">
          <mxGeometry relative="1" as="geometry" />
        </mxCell>
        <mxCell id="Q5AAanz-ZWtQsxfjovlU-19" style="edgeStyle=orthogonalEdgeStyle;rounded=0;orthogonalLoop=1;jettySize=auto;html=1;exitX=1;exitY=0.5;exitDx=0;exitDy=0;entryX=0;entryY=0.5;entryDx=0;entryDy=0;dashed=1;" edge="1" parent="WIyWlLk6GJQsqaUBKTNV-1" source="Q5AAanz-ZWtQsxfjovlU-2" target="Q5AAanz-ZWtQsxfjovlU-13">
          <mxGeometry relative="1" as="geometry" />
        </mxCell>
        <mxCell id="Q5AAanz-ZWtQsxfjovlU-2" value="&lt;div&gt;CollisionEntityModel&lt;/div&gt;&lt;div&gt;&lt;br&gt;&lt;/div&gt;" style="rounded=0;whiteSpace=wrap;html=1;" vertex="1" parent="WIyWlLk6GJQsqaUBKTNV-1">
          <mxGeometry x="-220" y="300" width="140" height="40" as="geometry" />
        </mxCell>
        <mxCell id="Q5AAanz-ZWtQsxfjovlU-7" style="edgeStyle=orthogonalEdgeStyle;rounded=0;orthogonalLoop=1;jettySize=auto;html=1;exitX=0.5;exitY=0;exitDx=0;exitDy=0;entryX=0.5;entryY=1;entryDx=0;entryDy=0;endArrow=block;endFill=1;" edge="1" parent="WIyWlLk6GJQsqaUBKTNV-1" source="Q5AAanz-ZWtQsxfjovlU-3" target="Q5AAanz-ZWtQsxfjovlU-2">
          <mxGeometry relative="1" as="geometry" />
        </mxCell>
        <mxCell id="Q5AAanz-ZWtQsxfjovlU-24" style="edgeStyle=orthogonalEdgeStyle;rounded=0;orthogonalLoop=1;jettySize=auto;html=1;exitX=1;exitY=0.5;exitDx=0;exitDy=0;entryX=0.5;entryY=0;entryDx=0;entryDy=0;dashed=1;endArrow=block;endFill=1;" edge="1" parent="WIyWlLk6GJQsqaUBKTNV-1" source="Q5AAanz-ZWtQsxfjovlU-3" target="Q5AAanz-ZWtQsxfjovlU-14">
          <mxGeometry relative="1" as="geometry">
            <Array as="points">
              <mxPoint x="-60" y="410" />
              <mxPoint x="-60" y="370" />
              <mxPoint x="200" y="370" />
            </Array>
          </mxGeometry>
        </mxCell>
        <mxCell id="Q5AAanz-ZWtQsxfjovlU-3" value="&lt;div&gt;CreatureModel&lt;/div&gt;&lt;div&gt;&lt;br&gt;&lt;/div&gt;" style="rounded=0;whiteSpace=wrap;html=1;" vertex="1" parent="WIyWlLk6GJQsqaUBKTNV-1">
          <mxGeometry x="-220" y="390" width="140" height="40" as="geometry" />
        </mxCell>
        <mxCell id="Q5AAanz-ZWtQsxfjovlU-8" style="edgeStyle=orthogonalEdgeStyle;rounded=0;orthogonalLoop=1;jettySize=auto;html=1;exitX=0.5;exitY=0;exitDx=0;exitDy=0;entryX=0.5;entryY=1;entryDx=0;entryDy=0;endArrow=block;endFill=1;" edge="1" parent="WIyWlLk6GJQsqaUBKTNV-1" source="Q5AAanz-ZWtQsxfjovlU-4" target="Q5AAanz-ZWtQsxfjovlU-3">
          <mxGeometry relative="1" as="geometry" />
        </mxCell>
        <mxCell id="Q5AAanz-ZWtQsxfjovlU-18" style="edgeStyle=orthogonalEdgeStyle;rounded=0;orthogonalLoop=1;jettySize=auto;html=1;exitX=1;exitY=0.5;exitDx=0;exitDy=0;entryX=0;entryY=0.5;entryDx=0;entryDy=0;dashed=1;endArrow=block;endFill=1;" edge="1" parent="WIyWlLk6GJQsqaUBKTNV-1" source="Q5AAanz-ZWtQsxfjovlU-4" target="Q5AAanz-ZWtQsxfjovlU-15">
          <mxGeometry relative="1" as="geometry" />
        </mxCell>
        <mxCell id="Q5AAanz-ZWtQsxfjovlU-4" value="&lt;div&gt;CombatEntityModel&lt;/div&gt;&lt;div&gt;&lt;br&gt;&lt;/div&gt;" style="rounded=0;whiteSpace=wrap;html=1;" vertex="1" parent="WIyWlLk6GJQsqaUBKTNV-1">
          <mxGeometry x="-220" y="470" width="140" height="40" as="geometry" />
        </mxCell>
        <mxCell id="Q5AAanz-ZWtQsxfjovlU-32" style="edgeStyle=orthogonalEdgeStyle;rounded=0;orthogonalLoop=1;jettySize=auto;html=1;exitX=0.5;exitY=0;exitDx=0;exitDy=0;entryX=0.5;entryY=1;entryDx=0;entryDy=0;endArrow=diamondThin;endFill=0;strokeWidth=1;" edge="1" parent="WIyWlLk6GJQsqaUBKTNV-1" source="Q5AAanz-ZWtQsxfjovlU-11" target="Q5AAanz-ZWtQsxfjovlU-5">
          <mxGeometry relative="1" as="geometry" />
        </mxCell>
        <mxCell id="Q5AAanz-ZWtQsxfjovlU-11" value="IEntity" style="rounded=0;whiteSpace=wrap;html=1;" vertex="1" parent="WIyWlLk6GJQsqaUBKTNV-1">
          <mxGeometry x="50" y="220" width="140" height="40" as="geometry" />
        </mxCell>
        <mxCell id="Q5AAanz-ZWtQsxfjovlU-30" style="edgeStyle=orthogonalEdgeStyle;rounded=0;orthogonalLoop=1;jettySize=auto;html=1;exitX=0.5;exitY=0;exitDx=0;exitDy=0;entryX=0.5;entryY=1;entryDx=0;entryDy=0;" edge="1" parent="WIyWlLk6GJQsqaUBKTNV-1" source="Q5AAanz-ZWtQsxfjovlU-12" target="Q5AAanz-ZWtQsxfjovlU-11">
          <mxGeometry relative="1" as="geometry" />
        </mxCell>
        <mxCell id="Q5AAanz-ZWtQsxfjovlU-12" value="IVulnerableEntity" style="rounded=0;whiteSpace=wrap;html=1;" vertex="1" parent="WIyWlLk6GJQsqaUBKTNV-1">
          <mxGeometry x="130" y="300" width="140" height="40" as="geometry" />
        </mxCell>
        <mxCell id="Q5AAanz-ZWtQsxfjovlU-31" style="edgeStyle=orthogonalEdgeStyle;rounded=0;orthogonalLoop=1;jettySize=auto;html=1;exitX=0.5;exitY=0;exitDx=0;exitDy=0;endArrow=block;endFill=1;" edge="1" parent="WIyWlLk6GJQsqaUBKTNV-1" source="Q5AAanz-ZWtQsxfjovlU-13">
          <mxGeometry relative="1" as="geometry">
            <mxPoint x="120" y="260" as="targetPoint" />
          </mxGeometry>
        </mxCell>
        <mxCell id="Q5AAanz-ZWtQsxfjovlU-13" value="ICollisionEntity" style="rounded=0;whiteSpace=wrap;html=1;" vertex="1" parent="WIyWlLk6GJQsqaUBKTNV-1">
          <mxGeometry x="-20" y="300" width="140" height="40" as="geometry" />
        </mxCell>
        <mxCell id="Q5AAanz-ZWtQsxfjovlU-14" value="IMobileEntity" style="rounded=0;whiteSpace=wrap;html=1;" vertex="1" parent="WIyWlLk6GJQsqaUBKTNV-1">
          <mxGeometry x="130" y="390" width="140" height="40" as="geometry" />
        </mxCell>
        <mxCell id="Q5AAanz-ZWtQsxfjovlU-28" style="edgeStyle=orthogonalEdgeStyle;rounded=0;orthogonalLoop=1;jettySize=auto;html=1;exitX=0.5;exitY=0;exitDx=0;exitDy=0;entryX=0.5;entryY=1;entryDx=0;entryDy=0;endArrow=block;endFill=1;" edge="1" parent="WIyWlLk6GJQsqaUBKTNV-1" source="Q5AAanz-ZWtQsxfjovlU-15" target="Q5AAanz-ZWtQsxfjovlU-13">
          <mxGeometry relative="1" as="geometry" />
        </mxCell>
        <mxCell id="Q5AAanz-ZWtQsxfjovlU-29" style="edgeStyle=orthogonalEdgeStyle;rounded=0;orthogonalLoop=1;jettySize=auto;html=1;exitX=0.5;exitY=0;exitDx=0;exitDy=0;entryX=0.5;entryY=1;entryDx=0;entryDy=0;endArrow=block;endFill=1;" edge="1" parent="WIyWlLk6GJQsqaUBKTNV-1" source="Q5AAanz-ZWtQsxfjovlU-15" target="Q5AAanz-ZWtQsxfjovlU-14">
          <mxGeometry relative="1" as="geometry" />
        </mxCell>
        <mxCell id="Q5AAanz-ZWtQsxfjovlU-15" value="ICombatEntity" style="rounded=0;whiteSpace=wrap;html=1;" vertex="1" parent="WIyWlLk6GJQsqaUBKTNV-1">
          <mxGeometry x="-20" y="470" width="140" height="40" as="geometry" />
        </mxCell>
        <mxCell id="Q5AAanz-ZWtQsxfjovlU-27" style="edgeStyle=orthogonalEdgeStyle;rounded=0;orthogonalLoop=1;jettySize=auto;html=1;entryX=0.505;entryY=1.075;entryDx=0;entryDy=0;entryPerimeter=0;dashed=1;endArrow=block;endFill=1;" edge="1" parent="WIyWlLk6GJQsqaUBKTNV-1" source="Q5AAanz-ZWtQsxfjovlU-3" target="Q5AAanz-ZWtQsxfjovlU-12">
          <mxGeometry relative="1" as="geometry">
            <Array as="points">
              <mxPoint x="-60" y="410" />
              <mxPoint x="-60" y="370" />
              <mxPoint x="201" y="370" />
            </Array>
          </mxGeometry>
        </mxCell>
        <mxCell id="Q5AAanz-ZWtQsxfjovlU-84" style="edgeStyle=orthogonalEdgeStyle;rounded=0;orthogonalLoop=1;jettySize=auto;html=1;entryX=0.75;entryY=0;entryDx=0;entryDy=0;endArrow=diamondThin;endFill=1;" edge="1" parent="WIyWlLk6GJQsqaUBKTNV-1" source="Q5AAanz-ZWtQsxfjovlU-34" target="Q5AAanz-ZWtQsxfjovlU-5">
          <mxGeometry relative="1" as="geometry" />
        </mxCell>
        <mxCell id="Q5AAanz-ZWtQsxfjovlU-34" value="MapModel" style="rounded=0;whiteSpace=wrap;html=1;" vertex="1" parent="WIyWlLk6GJQsqaUBKTNV-1">
          <mxGeometry x="340" y="-60" width="120" height="60" as="geometry" />
        </mxCell>
        <mxCell id="Q5AAanz-ZWtQsxfjovlU-37" value="IScenario" style="rounded=0;whiteSpace=wrap;html=1;" vertex="1" parent="WIyWlLk6GJQsqaUBKTNV-1">
          <mxGeometry x="-110" y="-110" width="140" height="40" as="geometry" />
        </mxCell>
        <mxCell id="Q5AAanz-ZWtQsxfjovlU-42" style="edgeStyle=orthogonalEdgeStyle;rounded=0;orthogonalLoop=1;jettySize=auto;html=1;exitX=0.5;exitY=0;exitDx=0;exitDy=0;entryX=0.5;entryY=1;entryDx=0;entryDy=0;endArrow=block;endFill=1;" edge="1" parent="WIyWlLk6GJQsqaUBKTNV-1" source="Q5AAanz-ZWtQsxfjovlU-38" target="Q5AAanz-ZWtQsxfjovlU-37">
          <mxGeometry relative="1" as="geometry" />
        </mxCell>
        <mxCell id="Q5AAanz-ZWtQsxfjovlU-38" value="FixedScenario" style="rounded=0;whiteSpace=wrap;html=1;" vertex="1" parent="WIyWlLk6GJQsqaUBKTNV-1">
          <mxGeometry y="-20" width="140" height="40" as="geometry" />
        </mxCell>
        <mxCell id="Q5AAanz-ZWtQsxfjovlU-40" style="edgeStyle=orthogonalEdgeStyle;rounded=0;orthogonalLoop=1;jettySize=auto;html=1;exitX=0.5;exitY=0;exitDx=0;exitDy=0;endArrow=block;endFill=1;" edge="1" parent="WIyWlLk6GJQsqaUBKTNV-1" source="Q5AAanz-ZWtQsxfjovlU-39" target="Q5AAanz-ZWtQsxfjovlU-37">
          <mxGeometry relative="1" as="geometry" />
        </mxCell>
        <mxCell id="Q5AAanz-ZWtQsxfjovlU-39" value="MarathonScenario" style="rounded=0;whiteSpace=wrap;html=1;" vertex="1" parent="WIyWlLk6GJQsqaUBKTNV-1">
          <mxGeometry x="-220" y="-20" width="140" height="40" as="geometry" />
        </mxCell>
        <mxCell id="Q5AAanz-ZWtQsxfjovlU-46" style="edgeStyle=orthogonalEdgeStyle;rounded=0;orthogonalLoop=1;jettySize=auto;html=1;exitX=0.5;exitY=0;exitDx=0;exitDy=0;entryX=0.5;entryY=1;entryDx=0;entryDy=0;dashed=1;" edge="1" parent="WIyWlLk6GJQsqaUBKTNV-1" source="Q5AAanz-ZWtQsxfjovlU-43" target="Q5AAanz-ZWtQsxfjovlU-44">
          <mxGeometry relative="1" as="geometry" />
        </mxCell>
        <mxCell id="Q5AAanz-ZWtQsxfjovlU-49" style="edgeStyle=orthogonalEdgeStyle;rounded=0;orthogonalLoop=1;jettySize=auto;html=1;exitX=0.5;exitY=1;exitDx=0;exitDy=0;entryX=0.25;entryY=0;entryDx=0;entryDy=0;endArrow=open;endFill=0;dashed=1;" edge="1" parent="WIyWlLk6GJQsqaUBKTNV-1" source="Q5AAanz-ZWtQsxfjovlU-43" target="Q5AAanz-ZWtQsxfjovlU-39">
          <mxGeometry relative="1" as="geometry" />
        </mxCell>
        <mxCell id="Q5AAanz-ZWtQsxfjovlU-43" value="MarathonCursor" style="rounded=0;whiteSpace=wrap;html=1;" vertex="1" parent="WIyWlLk6GJQsqaUBKTNV-1">
          <mxGeometry x="-220" y="-170" width="140" height="40" as="geometry" />
        </mxCell>
        <mxCell id="Q5AAanz-ZWtQsxfjovlU-54" style="edgeStyle=orthogonalEdgeStyle;rounded=0;orthogonalLoop=1;jettySize=auto;html=1;exitX=1;exitY=0.5;exitDx=0;exitDy=0;entryX=0.5;entryY=0;entryDx=0;entryDy=0;endArrow=diamondThin;endFill=1;" edge="1" parent="WIyWlLk6GJQsqaUBKTNV-1" source="Q5AAanz-ZWtQsxfjovlU-44" target="Q5AAanz-ZWtQsxfjovlU-5">
          <mxGeometry relative="1" as="geometry">
            <mxPoint x="303" y="50" as="targetPoint" />
          </mxGeometry>
        </mxCell>
        <mxCell id="Q5AAanz-ZWtQsxfjovlU-44" value="IScenarioCursor" style="rounded=0;whiteSpace=wrap;html=1;" vertex="1" parent="WIyWlLk6GJQsqaUBKTNV-1">
          <mxGeometry x="-110" y="-250" width="140" height="40" as="geometry" />
        </mxCell>
        <mxCell id="Q5AAanz-ZWtQsxfjovlU-48" style="edgeStyle=orthogonalEdgeStyle;rounded=0;orthogonalLoop=1;jettySize=auto;html=1;exitX=0.5;exitY=1;exitDx=0;exitDy=0;entryX=0.75;entryY=0;entryDx=0;entryDy=0;endArrow=open;endFill=0;dashed=1;" edge="1" parent="WIyWlLk6GJQsqaUBKTNV-1" source="Q5AAanz-ZWtQsxfjovlU-47" target="Q5AAanz-ZWtQsxfjovlU-38">
          <mxGeometry relative="1" as="geometry" />
        </mxCell>
        <mxCell id="Q5AAanz-ZWtQsxfjovlU-50" style="edgeStyle=orthogonalEdgeStyle;rounded=0;orthogonalLoop=1;jettySize=auto;html=1;exitX=0.5;exitY=0;exitDx=0;exitDy=0;dashed=1;" edge="1" parent="WIyWlLk6GJQsqaUBKTNV-1" source="Q5AAanz-ZWtQsxfjovlU-47">
          <mxGeometry relative="1" as="geometry">
            <mxPoint x="-40" y="-210" as="targetPoint" />
          </mxGeometry>
        </mxCell>
        <mxCell id="Q5AAanz-ZWtQsxfjovlU-47" value="FixedCursor" style="rounded=0;whiteSpace=wrap;html=1;" vertex="1" parent="WIyWlLk6GJQsqaUBKTNV-1">
          <mxGeometry y="-170" width="140" height="40" as="geometry" />
        </mxCell>
        <mxCell id="Q5AAanz-ZWtQsxfjovlU-61" style="edgeStyle=orthogonalEdgeStyle;rounded=0;orthogonalLoop=1;jettySize=auto;html=1;exitX=1;exitY=0.5;exitDx=0;exitDy=0;entryX=0;entryY=0.5;entryDx=0;entryDy=0;endArrow=diamondThin;endFill=0;" edge="1" parent="WIyWlLk6GJQsqaUBKTNV-1" source="Q5AAanz-ZWtQsxfjovlU-60" target="Q5AAanz-ZWtQsxfjovlU-5">
          <mxGeometry relative="1" as="geometry" />
        </mxCell>
        <mxCell id="Q5AAanz-ZWtQsxfjovlU-60" value="ModelTimer" style="rounded=0;whiteSpace=wrap;html=1;" vertex="1" parent="WIyWlLk6GJQsqaUBKTNV-1">
          <mxGeometry x="30" y="80" width="140" height="40" as="geometry" />
        </mxCell>
        <mxCell id="Q5AAanz-ZWtQsxfjovlU-64" style="edgeStyle=orthogonalEdgeStyle;rounded=0;orthogonalLoop=1;jettySize=auto;html=1;exitX=1;exitY=0.5;exitDx=0;exitDy=0;entryX=0;entryY=0.5;entryDx=0;entryDy=0;endArrow=none;endFill=0;" edge="1" parent="WIyWlLk6GJQsqaUBKTNV-1" source="Q5AAanz-ZWtQsxfjovlU-63" target="Q5AAanz-ZWtQsxfjovlU-37">
          <mxGeometry relative="1" as="geometry" />
        </mxCell>
        <mxCell id="Q5AAanz-ZWtQsxfjovlU-65" style="edgeStyle=orthogonalEdgeStyle;rounded=0;orthogonalLoop=1;jettySize=auto;html=1;exitX=0.75;exitY=0;exitDx=0;exitDy=0;entryX=0;entryY=0.5;entryDx=0;entryDy=0;endArrow=none;endFill=0;" edge="1" parent="WIyWlLk6GJQsqaUBKTNV-1" source="Q5AAanz-ZWtQsxfjovlU-63" target="Q5AAanz-ZWtQsxfjovlU-44">
          <mxGeometry relative="1" as="geometry" />
        </mxCell>
        <mxCell id="Q5AAanz-ZWtQsxfjovlU-53" value="scenario" style="text;html=1;align=center;verticalAlign=middle;whiteSpace=wrap;rounded=0;" vertex="1" parent="WIyWlLk6GJQsqaUBKTNV-1">
          <mxGeometry x="-430" y="-290" width="83.18181818181819" height="30" as="geometry" />
        </mxCell>
        <mxCell id="Q5AAanz-ZWtQsxfjovlU-63" value="IGameContext" style="rounded=0;whiteSpace=wrap;html=1;" vertex="1" parent="WIyWlLk6GJQsqaUBKTNV-1">
          <mxGeometry x="-370" y="-110" width="140" height="40" as="geometry" />
        </mxCell>
        <mxCell id="Q5AAanz-ZWtQsxfjovlU-5" value="GameModel" style="rounded=0;whiteSpace=wrap;html=1;fillColor=#f8cecc;strokeColor=#b85450;" vertex="1" parent="WIyWlLk6GJQsqaUBKTNV-1">
          <mxGeometry x="243" y="70" width="120" height="60" as="geometry" />
        </mxCell>
        <mxCell id="Q5AAanz-ZWtQsxfjovlU-83" value="level" style="text;html=1;align=center;verticalAlign=middle;whiteSpace=wrap;rounded=0;" vertex="1" parent="WIyWlLk6GJQsqaUBKTNV-1">
          <mxGeometry x="-460" y="-340" width="60" height="30" as="geometry" />
        </mxCell>
        <mxCell id="Q5AAanz-ZWtQsxfjovlU-86" style="edgeStyle=orthogonalEdgeStyle;rounded=0;orthogonalLoop=1;jettySize=auto;html=1;exitX=0;exitY=0.5;exitDx=0;exitDy=0;entryX=1;entryY=0.5;entryDx=0;entryDy=0;endArrow=diamondThin;endFill=1;" edge="1" parent="WIyWlLk6GJQsqaUBKTNV-1" source="Q5AAanz-ZWtQsxfjovlU-85" target="Q5AAanz-ZWtQsxfjovlU-5">
          <mxGeometry relative="1" as="geometry" />
        </mxCell>
        <mxCell id="Q5AAanz-ZWtQsxfjovlU-68" value="" style="shape=folder;fontStyle=1;spacingTop=10;tabWidth=70;tabHeight=30;tabPosition=left;html=1;whiteSpace=wrap;" vertex="1" parent="WIyWlLk6GJQsqaUBKTNV-1">
          <mxGeometry x="-480" y="250" width="210" height="300" as="geometry" />
        </mxCell>
        <mxCell id="Q5AAanz-ZWtQsxfjovlU-85" value="Statistics" style="rounded=0;whiteSpace=wrap;html=1;" vertex="1" parent="WIyWlLk6GJQsqaUBKTNV-1">
          <mxGeometry x="410" y="80" width="140" height="40" as="geometry" />
        </mxCell>
        <mxCell id="Q5AAanz-ZWtQsxfjovlU-88" style="edgeStyle=orthogonalEdgeStyle;rounded=0;orthogonalLoop=1;jettySize=auto;html=1;exitX=0.5;exitY=1;exitDx=0;exitDy=0;entryX=0.5;entryY=0;entryDx=0;entryDy=0;endArrow=diamondThin;endFill=0;" edge="1" parent="WIyWlLk6GJQsqaUBKTNV-1" source="Q5AAanz-ZWtQsxfjovlU-87" target="Q5AAanz-ZWtQsxfjovlU-34">
          <mxGeometry relative="1" as="geometry" />
        </mxCell>
        <mxCell id="Q5AAanz-ZWtQsxfjovlU-87" value="TileModel" style="rounded=0;whiteSpace=wrap;html=1;" vertex="1" parent="WIyWlLk6GJQsqaUBKTNV-1">
          <mxGeometry x="340" y="-155" width="120" height="60" as="geometry" />
        </mxCell>
        <mxCell id="Q5AAanz-ZWtQsxfjovlU-90" value="" style="shape=folder;fontStyle=1;spacingTop=10;tabWidth=70;tabHeight=30;tabPosition=left;html=1;whiteSpace=wrap;" vertex="1" parent="WIyWlLk6GJQsqaUBKTNV-1">
          <mxGeometry x="360" y="340" width="210" height="220" as="geometry" />
        </mxCell>
        <mxCell id="Q5AAanz-ZWtQsxfjovlU-91" value="physics" style="text;html=1;align=center;verticalAlign=middle;whiteSpace=wrap;rounded=0;" vertex="1" parent="WIyWlLk6GJQsqaUBKTNV-1">
          <mxGeometry x="382.1052631578948" y="348.18666666666667" width="28.63636363636364" height="13.636363636363637" as="geometry" />
        </mxCell>
        <mxCell id="Q5AAanz-ZWtQsxfjovlU-69" value="weapon" style="text;html=1;align=center;verticalAlign=middle;whiteSpace=wrap;rounded=0;" vertex="1" parent="WIyWlLk6GJQsqaUBKTNV-1">
          <mxGeometry x="-458.63473684210527" y="259.99666666666667" width="28.63636363636364" height="13.636363636363637" as="geometry" />
        </mxCell>
        <mxCell id="Q5AAanz-ZWtQsxfjovlU-72" value="WeaponModel" style="rounded=0;whiteSpace=wrap;html=1;" vertex="1" parent="WIyWlLk6GJQsqaUBKTNV-1">
          <mxGeometry x="-445" y="470" width="140" height="40" as="geometry" />
        </mxCell>
        <mxCell id="Q5AAanz-ZWtQsxfjovlU-94" value="PhysicsEngineModel" style="rounded=0;whiteSpace=wrap;html=1;" vertex="1" parent="WIyWlLk6GJQsqaUBKTNV-1">
          <mxGeometry x="395" y="410" width="140" height="40" as="geometry" />
        </mxCell>
        <mxCell id="Q5AAanz-ZWtQsxfjovlU-95" style="edgeStyle=orthogonalEdgeStyle;rounded=0;orthogonalLoop=1;jettySize=auto;html=1;exitX=0;exitY=0.5;exitDx=0;exitDy=0;entryX=0.75;entryY=1;entryDx=0;entryDy=0;endArrow=diamondThin;endFill=1;" edge="1" parent="WIyWlLk6GJQsqaUBKTNV-1" source="Q5AAanz-ZWtQsxfjovlU-94" target="Q5AAanz-ZWtQsxfjovlU-5">
          <mxGeometry relative="1" as="geometry" />
        </mxCell>
        <mxCell id="Q5AAanz-ZWtQsxfjovlU-97" style="edgeStyle=orthogonalEdgeStyle;rounded=0;orthogonalLoop=1;jettySize=auto;html=1;exitX=0.5;exitY=0;exitDx=0;exitDy=0;entryX=0.5;entryY=1;entryDx=0;entryDy=0;endArrow=none;endFill=0;" edge="1" parent="WIyWlLk6GJQsqaUBKTNV-1" source="Q5AAanz-ZWtQsxfjovlU-96" target="Q5AAanz-ZWtQsxfjovlU-94">
          <mxGeometry relative="1" as="geometry" />
        </mxCell>
        <mxCell id="Q5AAanz-ZWtQsxfjovlU-98" style="edgeStyle=orthogonalEdgeStyle;rounded=0;orthogonalLoop=1;jettySize=auto;html=1;exitX=0;exitY=0.5;exitDx=0;exitDy=0;entryX=1;entryY=0.5;entryDx=0;entryDy=0;endArrow=diamondThin;endFill=1;" edge="1" parent="WIyWlLk6GJQsqaUBKTNV-1" source="Q5AAanz-ZWtQsxfjovlU-96" target="Q5AAanz-ZWtQsxfjovlU-14">
          <mxGeometry relative="1" as="geometry">
            <Array as="points">
              <mxPoint x="310" y="510" />
              <mxPoint x="310" y="410" />
            </Array>
          </mxGeometry>
        </mxCell>
        <mxCell id="Q5AAanz-ZWtQsxfjovlU-96" value="MovementHandler" style="rounded=0;whiteSpace=wrap;html=1;" vertex="1" parent="WIyWlLk6GJQsqaUBKTNV-1">
          <mxGeometry x="395" y="490" width="140" height="40" as="geometry" />
        </mxCell>
        <mxCell id="Q5AAanz-ZWtQsxfjovlU-101" value="model" style="text;html=1;align=center;verticalAlign=middle;whiteSpace=wrap;rounded=0;" vertex="1" parent="WIyWlLk6GJQsqaUBKTNV-1">
          <mxGeometry x="-500" y="-380" width="60" height="30" as="geometry" />
        </mxCell>
        <mxCell id="Q5AAanz-ZWtQsxfjovlU-102" value="" style="shape=folder;fontStyle=1;spacingTop=10;tabWidth=70;tabHeight=30;tabPosition=left;html=1;whiteSpace=wrap;" vertex="1" parent="WIyWlLk6GJQsqaUBKTNV-1">
          <mxGeometry x="360" y="140" width="210" height="150" as="geometry" />
        </mxCell>
        <mxCell id="Q5AAanz-ZWtQsxfjovlU-103" value="behaviour" style="text;html=1;align=center;verticalAlign=middle;whiteSpace=wrap;rounded=0;" vertex="1" parent="WIyWlLk6GJQsqaUBKTNV-1">
          <mxGeometry x="382.1052631578948" y="146.37666666666667" width="28.63636363636364" height="13.636363636363637" as="geometry" />
        </mxCell>
        <mxCell id="Q5AAanz-ZWtQsxfjovlU-105" style="edgeStyle=orthogonalEdgeStyle;rounded=0;orthogonalLoop=1;jettySize=auto;html=1;exitX=0;exitY=0.5;exitDx=0;exitDy=0;entryX=0.75;entryY=1;entryDx=0;entryDy=0;endArrow=diamondThin;endFill=1;" edge="1" parent="WIyWlLk6GJQsqaUBKTNV-1" source="Q5AAanz-ZWtQsxfjovlU-104" target="Q5AAanz-ZWtQsxfjovlU-5">
          <mxGeometry relative="1" as="geometry" />
        </mxCell>
        <mxCell id="Q5AAanz-ZWtQsxfjovlU-104" value="FloodFillpathFinder" style="rounded=0;whiteSpace=wrap;html=1;" vertex="1" parent="WIyWlLk6GJQsqaUBKTNV-1">
          <mxGeometry x="395" y="210" width="140" height="40" as="geometry" />
        </mxCell>
        <mxCell id="Q5AAanz-ZWtQsxfjovlU-73" style="edgeStyle=orthogonalEdgeStyle;rounded=0;orthogonalLoop=1;jettySize=auto;html=1;exitX=1;exitY=0.5;exitDx=0;exitDy=0;entryX=0;entryY=0.5;entryDx=0;entryDy=0;endArrow=diamondThin;endFill=0;" edge="1" parent="WIyWlLk6GJQsqaUBKTNV-1" source="Q5AAanz-ZWtQsxfjovlU-72" target="Q5AAanz-ZWtQsxfjovlU-4">
          <mxGeometry relative="1" as="geometry" />
        </mxCell>
        <mxCell id="Q5AAanz-ZWtQsxfjovlU-108" style="edgeStyle=orthogonalEdgeStyle;rounded=0;orthogonalLoop=1;jettySize=auto;html=1;entryX=0;entryY=0.5;entryDx=0;entryDy=0;endArrow=block;endFill=1;" edge="1" parent="WIyWlLk6GJQsqaUBKTNV-1" source="Q5AAanz-ZWtQsxfjovlU-106" target="Q5AAanz-ZWtQsxfjovlU-2">
          <mxGeometry relative="1" as="geometry" />
        </mxCell>
        <mxCell id="Q5AAanz-ZWtQsxfjovlU-109" style="edgeStyle=orthogonalEdgeStyle;rounded=0;orthogonalLoop=1;jettySize=auto;html=1;entryX=0;entryY=0.5;entryDx=0;entryDy=0;endArrow=block;endFill=1;dashed=1;" edge="1" parent="WIyWlLk6GJQsqaUBKTNV-1" source="Q5AAanz-ZWtQsxfjovlU-106" target="Q5AAanz-ZWtQsxfjovlU-14">
          <mxGeometry relative="1" as="geometry">
            <Array as="points">
              <mxPoint x="-375" y="370" />
              <mxPoint x="-70" y="370" />
              <mxPoint x="-70" y="390" />
              <mxPoint x="80" y="390" />
              <mxPoint x="80" y="410" />
            </Array>
          </mxGeometry>
        </mxCell>
        <mxCell id="Q5AAanz-ZWtQsxfjovlU-106" value="Projectile" style="rounded=0;whiteSpace=wrap;html=1;" vertex="1" parent="WIyWlLk6GJQsqaUBKTNV-1">
          <mxGeometry x="-445" y="300" width="140" height="40" as="geometry" />
        </mxCell>
        <mxCell id="Q5AAanz-ZWtQsxfjovlU-111" style="edgeStyle=orthogonalEdgeStyle;rounded=0;orthogonalLoop=1;jettySize=auto;html=1;exitX=0.5;exitY=1;exitDx=0;exitDy=0;entryX=0.5;entryY=0;entryDx=0;entryDy=0;endArrow=block;endFill=1;" edge="1" parent="WIyWlLk6GJQsqaUBKTNV-1" source="Q5AAanz-ZWtQsxfjovlU-110" target="Q5AAanz-ZWtQsxfjovlU-72">
          <mxGeometry relative="1" as="geometry" />
        </mxCell>
        <mxCell id="Q5AAanz-ZWtQsxfjovlU-112" style="edgeStyle=orthogonalEdgeStyle;rounded=0;orthogonalLoop=1;jettySize=auto;html=1;exitX=0.25;exitY=0;exitDx=0;exitDy=0;entryX=0.25;entryY=1;entryDx=0;entryDy=0;endArrow=none;endFill=0;" edge="1" parent="WIyWlLk6GJQsqaUBKTNV-1" source="Q5AAanz-ZWtQsxfjovlU-110" target="Q5AAanz-ZWtQsxfjovlU-106">
          <mxGeometry relative="1" as="geometry" />
        </mxCell>
        <mxCell id="Q5AAanz-ZWtQsxfjovlU-110" value="ProjectileWeaponModel" style="rounded=0;whiteSpace=wrap;html=1;" vertex="1" parent="WIyWlLk6GJQsqaUBKTNV-1">
          <mxGeometry x="-445" y="390" width="140" height="40" as="geometry" />
        </mxCell>
        <mxCell id="Q5AAanz-ZWtQsxfjovlU-114" style="edgeStyle=orthogonalEdgeStyle;rounded=0;orthogonalLoop=1;jettySize=auto;html=1;entryX=0.75;entryY=0;entryDx=0;entryDy=0;endArrow=block;endFill=1;" edge="1" parent="WIyWlLk6GJQsqaUBKTNV-1" source="Q5AAanz-ZWtQsxfjovlU-113" target="Q5AAanz-ZWtQsxfjovlU-2">
          <mxGeometry relative="1" as="geometry">
            <Array as="points">
              <mxPoint x="-70" y="300" />
            </Array>
          </mxGeometry>
        </mxCell>
        <mxCell id="Q5AAanz-ZWtQsxfjovlU-113" value="BreakableBarrier" style="rounded=0;whiteSpace=wrap;html=1;" vertex="1" parent="WIyWlLk6GJQsqaUBKTNV-1">
          <mxGeometry x="-140" y="90" width="140" height="40" as="geometry" />
        </mxCell>
        <mxCell id="Q5AAanz-ZWtQsxfjovlU-115" style="edgeStyle=orthogonalEdgeStyle;rounded=0;orthogonalLoop=1;jettySize=auto;html=1;exitX=0.75;exitY=1;exitDx=0;exitDy=0;entryX=0.846;entryY=-0.087;entryDx=0;entryDy=0;entryPerimeter=0;dashed=1;endArrow=block;endFill=1;" edge="1" parent="WIyWlLk6GJQsqaUBKTNV-1" source="Q5AAanz-ZWtQsxfjovlU-113" target="Q5AAanz-ZWtQsxfjovlU-12">
          <mxGeometry relative="1" as="geometry">
            <Array as="points">
              <mxPoint x="-35" y="160" />
              <mxPoint x="248" y="160" />
            </Array>
          </mxGeometry>
        </mxCell>
      </root>
    </mxGraphModel>
  </diagram>
</mxfile>
